<svg xmlns="http://www.w3.org/2000/svg" width="24" height="20"><path fill="#fff" d="M23.492 2.705a9.6 9.6 0 0 1-2.742.751 4.8 4.8 0 0 0 2.1-2.643 9.5 9.5 0 0 1-3.033 1.159 4.778 4.778 0 0 0-8.14 4.357 13.56 13.56 0 0 1-9.844-4.99 4.8 4.8 0 0 0-.646 2.4 4.78 4.78 0 0 0 2.124 3.977 4.76 4.76 0 0 1-2.163-.598v.061a4.78 4.78 0 0 0 3.832 4.684 4.8 4.8 0 0 1-2.158.082 4.78 4.78 0 0 0 4.462 3.316 9.6 9.6 0 0 1-5.932 2.045 10 10 0 0 1-1.14-.067 13.5 13.5 0 0 0 7.32 2.146c8.787 0 13.59-7.277 13.59-13.589q0-.309-.013-.617a9.7 9.7 0 0 0 2.381-2.471Z"/></svg>